<svg id="svg" version="1.1" xmlns="http://www.w3.org/2000/svg" xmlns:xlink="http://www.w3.org/1999/xlink" width="400" height="400" viewBox="0, 0, 400,400"><g id="svgg"><path id="path0" d="M344.909 83.272 C 342.592 85.222,335.562 91.123,329.286 96.387 C 323.011 101.650,315.151 108.245,311.819 111.041 C 308.488 113.837,301.631 119.585,296.582 123.814 C 291.533 128.043,287.245 131.650,287.053 131.829 C 286.720 132.140,286.790 132.272,288.517 134.588 C 289.515 135.926,291.031 138.073,291.885 139.360 C 292.740 140.646,293.466 141.737,293.500 141.784 C 293.565 141.874,294.177 141.814,305.078 140.633 C 319.659 139.054,347.851 136.328,349.596 136.328 C 351.891 136.328,353.307 138.887,352.099 140.848 C 351.255 142.218,330.549 164.561,314.486 181.435 C 311.289 184.793,309.600 186.707,309.660 186.904 C 310.354 189.213,310.713 204.547,310.196 209.863 C 308.387 228.497,302.877 244.965,293.506 259.738 C 292.869 260.743,292.421 261.634,292.511 261.717 C 293.426 262.558,359.254 308.404,359.347 308.265 C 405.683 239.488,402.654 148.546,351.843 82.994 C 350.630 81.429,349.521 80.054,349.379 79.939 C 349.181 79.777,348.147 80.547,344.909 83.272 M290.909 196.924 L 290.137 197.754 290.967 196.982 C 291.739 196.264,291.887 196.094,291.739 196.094 C 291.707 196.094,291.333 196.467,290.909 196.924 M218.809 211.133 C 218.809 211.724,218.845 211.965,218.890 211.670 C 218.935 211.375,218.935 210.891,218.890 210.596 C 218.845 210.300,218.809 210.542,218.809 211.133 " stroke="none" fill="#33db53" fill-rule="evenodd"></path><path id="path1" d="M193.896 8.732 C 194.138 8.778,194.534 8.778,194.775 8.732 C 195.017 8.685,194.819 8.647,194.336 8.647 C 193.853 8.647,193.655 8.685,193.896 8.732 M205.130 8.734 C 205.427 8.779,205.866 8.778,206.106 8.731 C 206.346 8.685,206.104 8.648,205.566 8.650 C 205.029 8.651,204.833 8.689,205.130 8.734 M59.037 70.166 C -0.868 135.199,-9.094 231.759,38.972 305.693 C 39.905 307.127,40.698 308.333,40.734 308.372 C 40.782 308.424,105.072 263.504,107.301 261.860 C 107.650 261.602,107.611 261.499,106.501 259.750 C 80.057 218.059,84.935 162.594,118.227 126.415 C 118.945 125.636,119.531 124.933,119.531 124.852 C 119.531 124.682,62.067 67.188,61.896 67.188 C 61.833 67.188,60.546 68.528,59.037 70.166 M338.867 68.030 C 338.867 68.063,339.153 68.349,339.502 68.665 L 340.137 69.238 339.563 68.604 C 339.028 68.012,338.867 67.879,338.867 68.030 M194.875 90.373 C 195.118 90.419,195.470 90.417,195.657 90.369 C 195.843 90.320,195.645 90.281,195.215 90.284 C 194.785 90.286,194.632 90.326,194.875 90.373 M204.346 90.369 C 204.534 90.418,204.841 90.418,205.029 90.369 C 205.217 90.320,205.063 90.280,204.688 90.280 C 204.312 90.280,204.158 90.320,204.346 90.369 M303.210 184.229 L 302.637 184.863 303.271 184.290 C 303.863 183.755,303.996 183.594,303.845 183.594 C 303.812 183.594,303.526 183.879,303.210 184.229 M288.374 199.463 L 287.012 200.879 288.428 199.517 C 289.743 198.252,289.933 198.047,289.790 198.047 C 289.760 198.047,289.123 198.684,288.374 199.463 M277.046 210.791 L 275.488 212.402 277.100 210.844 C 278.596 209.397,278.800 209.180,278.658 209.180 C 278.628 209.180,277.903 209.905,277.046 210.791 " stroke="none" fill="#e3443c" fill-rule="evenodd"></path><path id="path2" d="M188.770 2.557 C 132.603 5.739,80.281 32.697,45.132 76.563 C -9.601 144.869,-13.188 240.848,36.290 313.140 C 38.214 315.952,39.560 316.616,41.417 315.669 C 42.901 314.912,114.298 264.750,114.707 264.176 C 115.689 262.800,115.393 261.625,113.255 258.398 C 76.599 203.073,100.166 128.222,161.914 103.851 C 206.238 86.358,256.983 101.387,284.749 140.231 C 286.657 142.901,286.938 142.608,281.934 143.162 C 238.554 147.973,198.879 155.062,184.067 160.649 C 157.634 170.620,143.284 200.869,152.062 228.118 C 161.647 257.872,193.911 273.468,223.374 262.590 C 236.087 257.896,253.041 243.703,289.282 207.415 L 303.857 192.821 303.986 194.246 C 305.881 215.157,299.036 240.210,286.246 259.180 C 284.648 261.550,284.387 262.906,285.286 264.167 C 285.689 264.731,357.121 314.924,358.582 315.669 C 360.376 316.583,361.829 315.923,363.517 313.426 C 383.352 284.083,394.765 252.378,397.741 218.359 C 407.932 101.847,316.262 1.965,199.512 2.374 C 195.107 2.389,190.273 2.471,188.770 2.557 M212.598 8.977 C 254.864 12.058,293.580 27.854,325.098 54.877 C 333.452 62.040,345.584 74.427,344.903 75.099 C 344.752 75.248,330.698 87.060,313.672 101.348 L 282.715 127.326 279.492 124.027 C 237.741 81.287,169.785 78.837,126.233 118.501 C 125.139 119.497,124.172 120.313,124.085 120.313 C 123.906 120.313,66.406 62.857,66.406 62.678 C 66.406 62.402,73.825 55.749,77.734 52.520 C 109.553 26.237,148.571 11.124,190.625 8.793 C 194.496 8.579,208.771 8.698,212.598 8.977 M90.771 95.947 C 106.589 111.765,119.531 124.772,119.531 124.852 C 119.531 124.933,118.945 125.636,118.227 126.415 C 84.935 162.594,80.057 218.059,106.501 259.750 C 107.611 261.499,107.650 261.602,107.301 261.860 C 105.072 263.504,40.782 308.424,40.734 308.372 C 40.454 308.069,36.895 302.448,35.266 299.736 C -7.376 228.726,0.301 138.271,54.302 75.461 C 56.692 72.681,61.735 67.188,61.896 67.188 C 61.959 67.188,74.953 80.129,90.771 95.947 M351.843 82.994 C 402.654 148.546,405.683 239.488,359.347 308.265 C 359.254 308.404,293.426 262.558,292.511 261.717 C 292.421 261.634,292.869 260.743,293.506 259.738 C 302.877 244.965,308.387 228.497,310.196 209.863 C 310.713 204.547,310.354 189.213,309.660 186.904 C 309.600 186.707,311.289 184.793,314.486 181.435 C 330.549 164.561,351.255 142.218,352.099 140.848 C 353.307 138.887,351.891 136.328,349.596 136.328 C 347.851 136.328,319.659 139.054,305.078 140.633 C 294.177 141.814,293.565 141.874,293.500 141.784 C 293.466 141.737,292.740 140.646,291.885 139.360 C 291.031 138.073,289.515 135.926,288.517 134.588 C 286.790 132.272,286.720 132.140,287.053 131.829 C 287.245 131.650,291.533 128.043,296.582 123.814 C 301.631 119.585,308.488 113.837,311.819 111.041 C 315.151 108.245,323.011 101.650,329.286 96.387 C 335.562 91.123,342.592 85.222,344.909 83.272 C 348.147 80.547,349.181 79.777,349.379 79.939 C 349.521 80.054,350.630 81.429,351.843 82.994 M341.188 143.896 C 340.809 144.299,337.869 147.483,334.654 150.972 C 287.803 201.813,248.472 239.960,230.607 251.887 C 208.819 266.432,178.834 260.320,164.098 238.328 C 148.349 214.824,155.939 182.996,180.615 169.066 C 192.222 162.514,226.091 156.002,284.277 149.135 C 301.092 147.150,338.184 143.273,341.202 143.184 L 341.876 143.164 341.188 143.896 M201.256 195.909 C 191.020 197.497,185.317 208.673,189.951 218.066 C 195.479 229.276,211.587 229.274,217.183 218.064 C 222.711 206.989,213.393 194.026,201.256 195.909 " stroke="none" fill="#060404" fill-rule="evenodd"></path><path id="path3" d="M332.422 144.051 C 252.213 151.870,199.068 160.318,183.299 167.756 C 163.960 176.878,152.831 198.574,156.647 219.709 C 162.858 254.103,202.117 270.957,230.943 251.604 C 249.241 239.320,287.305 202.222,338.449 146.826 C 340.603 144.493,341.700 143.171,341.472 143.184 C 341.275 143.195,337.202 143.585,332.422 144.051 M206.599 196.014 C 218.558 198.484,223.012 213.375,214.363 221.973 C 204.553 231.725,188.275 224.959,188.286 211.133 C 188.293 201.341,197.117 194.055,206.599 196.014 " stroke="none" fill="#fbfbfb" fill-rule="evenodd"></path><path id="path4" d="M193.359 8.716 C 146.241 10.543,102.060 29.014,68.085 61.091 L 66.347 62.733 95.136 91.523 C 110.970 107.357,123.975 120.313,124.037 120.313 C 124.098 120.313,124.889 119.642,125.795 118.822 C 170.053 78.758,237.821 81.051,279.556 124.024 L 282.715 127.277 313.281 101.614 C 330.093 87.499,344.152 75.703,344.523 75.401 L 345.199 74.852 342.578 71.948 C 304.879 30.169,249.151 6.554,193.359 8.716 " stroke="none" fill="#f3d31c" fill-rule="evenodd"></path></g></svg>