<?xml version="1.0" encoding="UTF-8" standalone="no"?>
<!-- Created with Inkscape (http://www.inkscape.org/) -->

<svg
   xmlns:dc="http://purl.org/dc/elements/1.1/"
   xmlns:cc="http://creativecommons.org/ns#"
   xmlns:rdf="http://www.w3.org/1999/02/22-rdf-syntax-ns#"
   xmlns:svg="http://www.w3.org/2000/svg"
   xmlns="http://www.w3.org/2000/svg"
   xmlns:sodipodi="http://sodipodi.sourceforge.net/DTD/sodipodi-0.dtd"
   xmlns:inkscape="http://www.inkscape.org/namespaces/inkscape"
   version="1.1"
   id="svg2"
   xml:space="preserve"
   width="922.66669"
   height="424"
   viewBox="0 0 922.66669 424"
   sodipodi:docname="LOGO_ISA_HOR.svg"
   inkscape:version="0.92.4 5da689c313, 2019-01-14"><metadata
     id="metadata8"><rdf:RDF><cc:Work
         rdf:about=""><dc:format>image/svg+xml</dc:format><dc:type
           rdf:resource="http://purl.org/dc/dcmitype/StillImage" /><dc:title /></cc:Work></rdf:RDF></metadata><defs
     id="defs6" /><sodipodi:namedview
     pagecolor="#ffffff"
     bordercolor="#666666"
     borderopacity="1"
     objecttolerance="10"
     gridtolerance="10"
     guidetolerance="10"
     inkscape:pageopacity="0"
     inkscape:pageshadow="2"
     inkscape:window-width="1920"
     inkscape:window-height="1029"
     id="namedview4"
     showgrid="false"
     inkscape:zoom="0.40534681"
     inkscape:cx="-30.837796"
     inkscape:cy="212"
     inkscape:window-x="0"
     inkscape:window-y="25"
     inkscape:window-maximized="1"
     inkscape:current-layer="g12" /><g
     id="g10"
     inkscape:groupmode="layer"
     inkscape:label="ink_ext_XXXXXX"
     transform="matrix(1.3333333,0,0,-1.3333333,0,424)"><g
       id="g12"
       transform="scale(0.1)"><path
         d="m 2419.25,847.617 c 176.11,195.733 283.59,454.453 284.53,738.263 2.04,175.64 -38.82,341.74 -111.55,489.31 -147.12,301.92 -427.19,527.16 -764.03,599.52 -74.39,11.11 -151.53,19.4 -230.61,19.4 -82.86,0 -241.28,-20.14 -241.28,-20.14 -498.736,-108.81 -872.154,-552.94 -872.154,-1084.31 0,-474.28 294.907,-873.523 695.624,-1030.586 50.38,-19.117 108.06,-33.191 138.94,-4.027 36.24,34.234 37.81,71.578 38.26,179.215 l 0.18,289.928 c 69.59,-24.655 144.48,-38.073 222.52,-38.073 87.85,0 171.73,17.013 248.52,47.903 v -13.47 l -3.09,-771.577 C 1825.11,128.156 1735.54,4.20703 1542.23,4.20703 744.832,4.20703 8.51172,714.027 8.51172,1589.66 c 0,875.64 709.82028,1585.46 1585.44828,1585.46 875.64,0 1585.46,-709.82 1585.46,-1585.46 0,-416.64 -160.71,-795.75 -423.52,-1078.707 l 172.88,-172.887 -471.28,-126.269 -157.95,-42.32 -12.15,-5.985 -301.17,-77.9607 126.28,471.2817 126.28,471.277 180.46,-180.473"
         style="fill:#ce2e3a;fill-opacity:1;fill-rule:nonzero;stroke:none"
         id="path14"
         inkscape:connector-curvature="0" /><path
         d="m 1198.3,1585.2 c 0,211.89 171.77,383.66 383.66,383.66 211.89,0 383.66,-171.77 383.66,-383.66 0,-211.89 -171.77,-383.65 -383.66,-383.65 -211.89,0 -383.66,171.76 -383.66,383.65"
         style="fill:#cccccc;fill-opacity:1;fill-rule:nonzero;stroke:none"
         id="path16"
         inkscape:connector-curvature="0" /><path
         d="m 3971.6,1006.82 c 0,-35.785 -0.89,-66.203 -2.68,-91.25 -1.79,-25.05 -17.89,-42.05 -48.31,-50.996 -10.73,-3.578 -22.36,-4.918 -34.89,-4.023 -12.52,0.894 -25.95,1.34 -40.26,1.34 h -150.3 c -16.1,0 -31.75,0.894 -46.96,2.683 -15.21,1.789 -26.4,7.16 -33.55,16.106 -10.74,12.523 -16.55,28.179 -17.45,46.965 -0.89,18.789 -1.34,38.918 -1.34,60.386 V 2192.04 c 0,17.9 0,35.79 0,53.68 0,17.89 3.58,32.21 10.74,42.94 10.73,12.53 25.94,20.58 45.62,24.16 3.58,1.79 8.5,2.23 14.76,1.34 6.27,-0.89 11.19,-0.45 14.77,1.34 h 134.19 c 10.74,0 22.81,0.45 36.23,1.34 13.42,0.9 24.6,0.45 33.55,-1.34 h 21.47 c 10.74,-3.58 20.58,-6.26 29.52,-8.05 8.95,-1.79 16.11,-7.16 21.47,-16.1 7.16,-8.95 11.19,-21.47 12.08,-37.58 0.9,-16.1 1.34,-33.1 1.34,-50.99 V 1006.82"
         style="fill:#cccccc;fill-opacity:1;fill-rule:nonzero;stroke:none"
         id="path18"
         inkscape:connector-curvature="0" /><path
         d="m 4735.18,2318.52 c 134.2,3.58 250.95,-11.18 350.25,-44.28 99.3,-33.1 174.9,-89.91 226.78,-170.43 12.53,-19.68 23.71,-39.81 33.56,-60.38 9.84,-20.58 18.34,-43.39 25.49,-68.44 3.58,-10.74 5.37,-22.37 5.37,-34.89 0,-12.53 -1.79,-23.26 -5.37,-32.21 -7.15,-10.73 -17,-17.89 -29.52,-21.47 -8.95,-3.58 -19.69,-5.37 -32.21,-5.37 -12.52,0 -25.05,0 -37.57,0 h -118.09 c -12.53,0 -25.05,-0.44 -37.58,-1.34 -12.52,-0.89 -24.15,0.45 -34.88,4.03 -17.9,3.58 -31.32,10.73 -40.27,21.47 -8.94,10.74 -16.99,21.92 -24.15,33.54 -7.15,11.64 -13.86,24.16 -20.13,37.58 -6.26,13.42 -15.65,24.6 -28.18,33.55 -17.89,14.31 -35.34,25.05 -52.33,32.21 -17,7.15 -38.03,13.41 -63.08,18.78 -12.52,3.58 -30.86,6.26 -55.02,8.05 -24.15,1.79 -42.49,0.9 -55.02,-2.68 h -18.78 c -8.95,-1.79 -17.45,-3.13 -25.5,-4.03 -8.05,-0.89 -16.55,-2.23 -25.49,-4.02 -30.42,-8.95 -55.02,-21.03 -73.81,-36.23 -18.79,-15.21 -31.76,-38.03 -38.92,-68.44 -3.57,-12.53 -3.57,-24.16 0,-34.89 3.58,-10.74 7.16,-19.68 10.74,-26.84 12.53,-21.47 27.28,-38.47 44.28,-51 17,-12.52 37.13,-23.25 60.39,-32.2 34,-14.32 71.12,-26.39 111.38,-36.23 40.26,-9.84 81.41,-18.79 123.46,-26.84 42.05,-8.06 83.2,-17 123.46,-26.84 40.25,-9.84 78.27,-21.92 114.06,-36.23 16.1,-7.16 31.76,-12.97 46.97,-17.45 15.21,-4.47 29.97,-11.18 44.28,-20.13 34,-21.47 64.86,-44.73 92.59,-69.78 27.74,-25.05 49.66,-56.36 65.76,-93.93 5.37,-12.53 9.84,-25.05 13.42,-37.58 3.58,-12.52 7.16,-25.94 10.73,-40.26 1.79,-10.73 3.14,-27.28 4.03,-49.65 0.89,-22.36 0.45,-39.81 -1.34,-52.33 v -13.42 c -3.58,-10.74 -5.82,-21.03 -6.71,-30.87 -0.89,-9.84 -2.24,-19.23 -4.03,-28.17 -12.52,-53.68 -32.2,-101.1 -59.04,-142.25 -28.63,-42.94 -63.52,-77.83 -104.67,-104.673 -41.15,-26.836 -87.68,-50.098 -139.56,-69.781 -19.68,-8.946 -40.71,-15.207 -63.07,-18.785 -22.37,-3.578 -44.29,-8.051 -65.76,-13.418 -16.1,-3.582 -32.65,-5.817 -49.65,-6.711 -17,-0.895 -33.55,-3.133 -49.65,-6.711 h -48.31 c -10.74,-3.578 -29.08,-5.367 -55.02,-5.367 -25.95,0 -44.29,1.789 -55.02,5.367 -5.37,0 -11.18,0.449 -17.45,1.344 -6.26,0.894 -12.97,1.339 -20.12,1.339 -21.48,3.582 -42.95,6.262 -64.42,8.055 -21.47,1.789 -42.05,5.367 -61.73,10.734 -69.78,19.68 -131.51,42.493 -185.18,68.438 -53.68,25.945 -99.31,64.859 -136.88,116.749 -25.05,34 -46.52,73.36 -64.41,118.09 -3.58,10.74 -7.16,25.05 -10.74,42.94 -3.57,8.95 -6.26,21.47 -8.05,37.58 -1.79,16.1 -0.9,29.52 2.68,40.25 5.37,12.53 14.31,21.47 26.84,26.84 8.95,3.58 19.68,5.37 32.21,5.37 12.53,0 25.94,0 40.26,0 h 126.14 c 14.31,0 28.63,0 42.94,0 14.32,0 26.84,-1.79 37.57,-5.37 19.68,-7.16 32.66,-18.78 38.92,-34.89 6.26,-16.1 13.87,-33.1 22.81,-50.99 3.58,-8.95 10.29,-20.58 20.13,-34.89 9.84,-14.32 18.34,-23.26 25.5,-26.84 21.47,-17.89 42.05,-31.76 61.73,-41.6 19.68,-9.84 44.73,-19.24 75.14,-28.18 8.95,-3.58 17.9,-4.92 26.84,-4.03 8.95,0.9 17.9,0.45 26.84,-1.34 14.32,-3.58 29.97,-4.92 46.97,-4.02 17,0.89 31.76,3.13 44.28,6.71 8.95,1.79 17.45,2.68 25.5,2.68 8.05,0 16.55,1.79 25.5,5.37 25.05,8.94 47.86,19.68 68.44,32.2 20.57,12.53 37.13,28.63 49.65,48.31 8.94,14.32 16.1,36.68 21.47,67.1 3.58,12.52 3.58,24.16 0,34.89 -3.58,10.74 -7.16,19.68 -10.74,26.84 -12.52,25.05 -28.18,43.83 -46.96,56.36 -18.79,12.52 -40.71,24.15 -65.76,34.89 -33.99,14.31 -69.78,25.94 -107.35,34.89 -37.58,8.95 -75.15,18.79 -112.73,29.52 -14.31,3.58 -29.07,6.27 -44.28,8.06 -15.21,1.78 -29.97,4.47 -44.28,8.05 -57.26,16.1 -111.83,31.75 -163.72,46.96 -51.88,15.21 -99.3,38.02 -142.24,68.44 -50.1,35.79 -86.78,84.1 -110.04,144.93 -3.58,12.53 -7.16,29.52 -10.74,50.99 -3.58,12.53 -6.26,27.73 -8.05,45.63 -1.79,17.89 -0.89,34 2.69,48.31 3.57,8.95 4.47,16.55 2.68,22.81 -1.79,6.26 -0.9,13.87 2.68,22.82 3.58,19.68 7.61,38.02 12.08,55.02 4.47,16.99 10.29,33.54 17.45,49.64 23.26,51.9 55.46,93.94 96.61,126.15 41.16,32.2 87.68,58.15 139.57,77.83 19.68,8.95 40.25,15.65 61.72,20.13 21.47,4.47 43.84,9.39 67.1,14.76 10.74,3.58 21.47,5.81 32.21,6.71 10.73,0.89 21.47,2.24 32.2,4.03 14.32,1.79 29.53,2.68 45.63,2.68 16.1,0 31.31,0.89 45.62,2.68"
         style="fill:#cccccc;fill-opacity:1;fill-rule:nonzero;stroke:none"
         id="path20"
         inkscape:connector-curvature="0" /><path
         d="m 6908.27,1003.43 c 3.58,-19.684 5.82,-39.364 6.71,-59.047 0.9,-19.68 -8.5,-33.102 -28.18,-40.258 -10.73,-5.367 -23.26,-8.051 -37.57,-8.051 -14.32,0 -28.63,0 -42.94,0 h -144.93 c -16.11,0 -31.76,0.449 -46.97,1.34 -15.21,0.895 -27.29,4.922 -36.23,12.082 -12.53,7.156 -21.92,17.442 -28.18,30.859 -6.27,13.422 -14.77,24.606 -25.5,33.551 -3.58,3.578 -8.05,6.711 -13.42,9.395 -5.37,2.683 -12.52,3.129 -21.47,1.34 -8.95,-3.578 -17.45,-8.051 -25.5,-13.418 -8.05,-5.368 -16.55,-9.844 -25.49,-13.418 -8.95,-7.16 -18.79,-13.422 -29.53,-18.789 -10.73,-5.368 -21.47,-10.735 -32.2,-16.102 -23.26,-10.738 -47.42,-19.234 -72.47,-25.5 -25.04,-6.258 -50.99,-12.969 -77.83,-20.125 -12.52,-3.578 -24.6,-5.816 -36.23,-6.711 -11.63,-0.894 -23.71,-2.238 -36.23,-4.027 -5.37,0 -10.74,-0.446 -16.11,-1.34 -5.36,-0.895 -10.73,-1.344 -16.1,-1.344 h -29.52 c -17.9,-3.578 -35.79,-3.578 -53.68,0 h -24.16 c -12.52,3.578 -24.6,4.922 -36.23,4.028 -11.63,-0.895 -22.81,0.445 -33.54,4.023 -17.9,3.578 -34.89,6.711 -51,9.395 -16.1,2.683 -31.31,7.605 -45.63,14.761 -51.89,19.68 -96.17,45.18 -132.85,76.489 -36.68,31.317 -65.75,72.917 -87.22,124.797 -5.37,12.53 -10.29,25.95 -14.77,40.26 -4.47,14.32 -8.49,29.52 -12.07,45.63 -3.58,8.95 -4.92,17.89 -4.03,26.84 0.9,8.94 0.45,17.89 -1.34,26.84 -1.79,5.36 -3.13,16.55 -4.02,33.54 -0.9,17 -0.45,29.08 1.34,36.24 3.58,17.89 5.37,33.09 5.37,45.62 5.36,19.69 10.73,39.81 16.1,60.39 5.37,20.57 12.52,38.91 21.47,55.02 30.42,51.89 65.31,91.25 104.67,118.09 39.37,26.83 89.46,50.1 150.3,69.78 23.26,8.94 47.41,15.21 72.46,18.78 25.05,3.58 50.1,8.06 75.15,13.42 14.31,3.58 29.52,5.82 45.62,6.71 16.11,0.9 32.21,3.14 48.32,6.71 12.52,3.58 25.04,4.93 37.57,4.03 12.52,-0.9 25.94,0.45 40.26,4.03 12.52,3.57 25.05,5.36 37.57,5.36 12.53,0 25.94,1.79 40.26,5.37 37.57,8.95 72.02,16.55 103.33,22.82 31.31,6.26 59.49,21.91 84.54,46.96 16.1,16.11 26.84,34 32.21,53.68 1.79,5.37 2.23,9.84 1.34,13.42 -0.9,3.58 -0.45,7.15 1.34,10.73 1.79,3.58 2.68,8.95 2.68,16.11 0,7.15 0,12.52 0,16.1 -1.79,7.16 -3.13,14.31 -4.02,21.47 -0.9,7.16 -2.24,13.42 -4.03,18.79 -17.89,53.67 -55.46,90.35 -112.72,110.04 -16.1,5.36 -35.34,9.39 -57.7,12.07 -22.37,2.69 -45.18,3.58 -68.44,2.69 -23.26,-0.9 -45.63,-3.13 -67.1,-6.71 -21.47,-3.58 -40.26,-8.05 -56.36,-13.42 -10.73,-3.58 -21.02,-8.5 -30.87,-14.76 -9.84,-6.26 -19.23,-12.97 -28.18,-20.13 -8.94,-7.16 -18.34,-17 -28.18,-29.52 -9.84,-12.53 -16.55,-24.16 -20.12,-34.9 -8.95,-17.89 -16.56,-34.89 -22.82,-50.99 -6.26,-16.1 -19.23,-26.84 -38.91,-32.2 -14.32,-3.58 -29.52,-5.37 -45.63,-5.37 -16.1,0 -32.2,0 -48.31,0 h -101.99 c -8.94,0 -17.89,-0.45 -26.83,-1.35 -8.95,-0.89 -17,-0.44 -24.16,1.35 h -24.16 c -3.57,1.79 -8.05,2.68 -13.41,2.68 -5.37,0 -9.84,1.79 -13.42,5.37 -14.32,3.58 -24.15,15.21 -29.52,34.89 -1.79,8.95 -1.79,17.89 0,26.84 1.78,8.95 3.57,17 5.37,24.15 5.36,19.69 11.18,38.02 17.44,55.02 6.26,17 13.87,32.66 22.81,46.97 5.37,8.95 10.73,17.89 16.11,26.84 5.36,8.95 10.73,17.89 16.1,26.84 14.31,19.68 32.2,38.46 53.67,56.36 3.59,1.79 8.95,6.26 16.11,13.42 8.94,7.15 16.99,13.42 24.16,18.78 7.15,5.37 15.2,10.74 24.15,16.11 30.42,19.68 62.62,35.33 96.62,46.96 33.99,11.64 68.88,22.82 104.67,33.55 21.47,5.37 43.83,8.95 67.09,10.74 23.27,1.79 46.52,5.37 69.78,10.74 7.16,1.79 18.35,1.79 33.55,0 15.21,-1.79 24.6,-0.9 28.19,2.68 73.35,1.79 143.58,-0.89 210.68,-8.05 67.09,-7.16 127.93,-20.58 182.5,-40.26 54.57,-19.68 101.54,-46.07 140.9,-79.17 39.37,-33.11 69.78,-75.6 91.25,-127.49 12.53,-30.42 19.69,-65.31 21.47,-104.67 1.79,-39.36 2.69,-79.62 2.69,-120.77 v -598.5 c 0,-34 0,-68.44 0,-103.33 0,-34.89 3.58,-66.65 10.73,-95.28 1.79,-5.37 2.69,-11.18 2.69,-17.44 0,-6.27 0.89,-12.08 2.68,-17.45 z m -394.53,413.31 c 1.79,8.95 2.69,19.24 2.69,30.87 0,11.63 -0.9,21.92 -2.69,30.86 -3.57,10.74 -5.36,20.58 -5.36,29.53 0,8.94 -3.58,16.1 -10.74,21.46 -8.94,7.17 -22.37,10.74 -40.26,10.74 -7.15,-1.79 -13.42,-3.13 -18.78,-4.02 -5.37,-0.9 -11.64,-2.24 -18.79,-4.03 -12.52,-3.58 -25.94,-6.26 -40.26,-8.05 -14.31,-1.79 -28.63,-4.47 -42.94,-8.05 -5.37,-1.79 -13.42,-2.69 -24.16,-2.69 -23.26,-5.36 -46.52,-8.94 -69.77,-10.73 -23.27,-1.79 -45.63,-6.26 -67.1,-13.42 -14.32,-3.58 -27.74,-6.71 -40.26,-9.39 -12.53,-2.69 -25.05,-6.71 -37.57,-12.08 -37.58,-16.11 -69.34,-40.26 -95.29,-72.47 -25.94,-32.2 -35.33,-76.93 -28.17,-134.19 3.57,-30.42 13.42,-55.47 29.52,-75.15 12.52,-19.68 31.31,-35.34 56.36,-46.97 25.05,-11.63 52.33,-20.12 81.86,-25.5 29.52,-5.36 60.83,-6.7 93.93,-4.02 33.11,2.69 63.97,8.5 92.6,17.45 46.52,14.31 83.2,37.12 110.04,68.43 26.83,31.32 47.41,70.23 61.72,116.75 3.58,12.53 5.82,25.5 6.72,38.92 0.89,13.42 3.13,27.28 6.7,41.6 v 24.15"
         style="fill:#cccccc;fill-opacity:1;fill-rule:evenodd;stroke:none"
         id="path22"
         inkscape:connector-curvature="0" /></g></g></svg>